<?xml version="1.0" encoding="utf-8"?>
<!-- Uploaded to: SVG Repo, www.svgrepo.com, Generator: SVG Repo Mixer Tools -->
<svg width="800px" height="800px" viewBox="0 0 1024 1024" class="icon"  version="1.1" xmlns="http://www.w3.org/2000/svg"><path d="M512.24064 581.9136c-38.478848 0-69.671936-31.193088-69.671936-69.67296 0-38.477824 31.193088-69.670912 69.67296-69.670912 38.477824 0 69.670912 31.193088 69.670912 69.671936s-31.193088 69.671936-69.671936 69.671936m0-487.7056C281.367552 94.208 94.208 281.368576 94.208 512.241664S281.367552 930.27328 512.24064 930.27328c230.873088 0 418.03264-187.159552 418.03264-418.03264C930.27328 281.368576 743.113728 94.208 512.24064 94.208" fill="#FFF200" /><path d="M271.450112 512.241664h-40.96c0-75.257856 29.30688-146.01216 82.52416-199.227392 53.214208-53.21728 123.967488-82.52416 199.225344-82.52416v40.96c-64.316416 0-124.78464 25.04704-170.263552 70.526976-45.478912 45.479936-70.525952 105.947136-70.525952 170.264576m240.789504 281.750528v-40.96c64.318464 0 124.786688-25.04704 170.2656-70.525952 45.478912-45.478912 70.525952-105.947136 70.525952-170.264576h40.96c0 75.25888-29.30688 146.01216-82.523136 199.228416-53.216256 53.215232-123.969536 82.522112-199.228416 82.522112M358.540288 512.241664h-40.96c0-107.33568 87.323648-194.660352 194.659328-194.660352v40.96c-84.749312 0-153.699328 68.950016-153.699328 153.700352m153.699328 194.660352v-40.96c84.75136 0 153.7024-68.950016 153.7024-153.700352h40.96c0 107.33568-87.325696 194.660352-194.6624 194.660352m0-243.852288c-27.124736 0-49.191936 22.0672-49.191936 49.191936s22.0672 49.191936 49.19296 49.191936 49.19296-22.0672 49.19296-49.19296c0-27.123712-22.0672-49.190912-49.19296-49.190912m0 139.343872c-49.71008 0-90.15296-40.441856-90.15296-90.15296 0-49.709056 40.44288-90.150912 90.15296-90.150912 49.71008 0 90.15296 40.441856 90.15296 90.151936s-40.44288 90.151936-90.15296 90.151936m0-508.184576C281.367552 94.208 94.208 281.368576 94.208 512.241664 94.208 743.114752 281.367552 930.27328 512.24064 930.27328c230.873088 0 418.03264-187.159552 418.03264-418.03264C930.27328 281.368576 743.113728 94.208 512.24064 94.208m0 40.96c50.92352 0 100.3008 9.96352 146.760704 29.61408 44.89728 18.991104 85.22752 46.184448 119.870464 80.827392 34.642944 34.64192 61.836288 74.973184 80.826368 119.86944 19.651584 46.461952 29.615104 95.839232 29.615104 146.761728s-9.96352 100.3008-29.61408 146.761728c-18.991104 44.896256-46.184448 85.226496-80.827392 119.86944-34.64192 34.64192-74.973184 61.836288-119.86944 80.826368-46.461952 19.65056-95.839232 29.61408-146.761728 29.61408s-100.3008-9.96352-146.761728-29.61408c-44.896256-18.99008-85.226496-46.183424-119.86944-80.826368-34.64192-34.642944-61.836288-74.973184-80.826368-119.86944-19.65056-46.460928-29.61408-95.839232-29.61408-146.761728 0-50.92352 9.96352-100.3008 29.61408-146.760704 18.99008-44.89728 46.183424-85.22752 80.826368-119.870464s74.973184-61.836288 119.86944-80.826368C411.93984 145.13152 461.318144 135.168 512.24064 135.168" fill="#000000" /></svg>